<svg xmlns="http://www.w3.org/2000/svg" xmlns:xlink="http://www.w3.org/1999/xlink" width="2000" zoomAndPan="magnify" viewBox="0 0 1500 1499.999933" height="2000" preserveAspectRatio="xMidYMid meet" version="1.0"><defs><g/><clipPath id="edaa4ea8c0"><path d="M 410.292969 290 L 1038 290 L 1038 875.492188 L 410.292969 875.492188 Z M 410.292969 290 " clip-rule="nonzero"/></clipPath><clipPath id="f9d8faec9d"><path d="M 847.0625 358.222656 C 846.578125 359.652344 846.429688 413.300781 846.449219 482.292969 L 750.757812 535.914062 L 750.757812 412.1875 Z M 683.277344 482.359375 L 683.277344 455.507812 L 645.515625 465.613281 L 613.640625 474.207031 L 608.09375 475.71875 L 543.886719 493.011719 L 543.886719 514.070312 L 610.917969 498.761719 Z M 683.277344 536.8125 L 683.277344 510.648438 L 644.957031 517.386719 L 612.6875 523.113281 L 607.097656 524.121094 L 543.886719 535.332031 L 543.886719 557.957031 L 610.863281 547.757812 Z M 683.277344 427.914062 L 683.277344 400.363281 L 646.074219 413.839844 L 614.597656 425.296875 L 609.105469 427.3125 L 543.886719 451.042969 L 543.886719 470.191406 L 610.96875 449.777344 Z M 610.796875 596.730469 L 683.277344 591.257812 L 683.277344 565.789062 L 644.398438 569.160156 L 611.730469 572.023438 L 606.101562 572.527344 L 543.898438 577.976562 L 543.898438 601.546875 L 544.628906 601.78125 Z M 970.304688 412.90625 L 970.304688 688.070312 L 1037.097656 718.183594 L 1037.097656 493.914062 Z M 683.277344 373.457031 L 683.277344 345.222656 L 646.628906 362.066406 L 615.550781 376.386719 L 610.101562 378.90625 L 543.878906 409.417969 L 543.878906 426.324219 L 611.011719 400.816406 Z M 683.222656 318.960938 L 683.277344 290.078125 L 611.097656 330.523438 L 543.886719 368.179688 L 543.886719 382.449219 L 611.078125 351.832031 Z M 782.917969 712.011719 L 717.242188 726.441406 L 660.628906 738.875 L 560.460938 760.878906 L 465.335938 781.777344 L 458.300781 783.324219 L 410.335938 793.859375 L 410.335938 804.015625 L 609.875 775.609375 L 638.371094 771.554688 L 717.253906 760.320312 L 782.929688 750.96875 L 783.21875 751.011719 L 783.21875 711.9375 Z M 782.917969 639.597656 L 749.960938 651.089844 L 739.429688 654.769531 L 717.242188 662.503906 L 711.234375 664.59375 L 517.367188 732.214844 L 458.289062 752.824219 L 410.324219 769.558594 L 410.324219 780.167969 L 458.289062 767.777344 L 505.898438 755.484375 L 525.414062 750.441406 L 679.929688 710.542969 L 717.230469 700.910156 L 782.910156 683.949219 L 783.199219 684.011719 L 783.199219 639.707031 Z M 717.242188 789.007812 L 410.324219 814.175781 L 410.324219 823.851562 L 717.242188 818.46875 L 782.917969 817.308594 L 783.210938 817.320312 L 783.210938 783.613281 L 782.917969 783.632812 Z M 604.597656 620.933594 L 682.386719 645.769531 L 682.570312 645.691406 L 682.578125 637.851562 L 682.601562 620.921875 L 604.597656 620.921875 Z M 717.242188 842.058594 L 410.324219 832.863281 L 410.324219 842.039062 L 782.917969 875.402344 L 783.210938 875.390625 L 783.210938 844.042969 L 782.917969 844.03125 Z M 717.242188 842.058594 " clip-rule="nonzero"/></clipPath><linearGradient x1="342.592642" gradientTransform="matrix(1.072803, 0, 0, 1.072803, 408.253585, 290.079917)" y1="-26.316171" x2="277.585076" gradientUnits="userSpaceOnUse" y2="575.381763" id="d0a15d5ecc"><stop stop-opacity="1" stop-color="rgb(77.656555%, 59.085083%, 22.10083%)" offset="0"/><stop stop-opacity="1" stop-color="rgb(77.610779%, 59.01947%, 22.044373%)" offset="0.103695"/><stop stop-opacity="1" stop-color="rgb(77.565002%, 58.953857%, 21.989441%)" offset="0.5"/><stop stop-opacity="1" stop-color="rgb(77.5177%, 58.886719%, 21.932983%)" offset="0.896305"/><stop stop-opacity="1" stop-color="rgb(77.471924%, 58.821106%, 21.876526%)" offset="1"/></linearGradient><clipPath id="25660c6981"><path d="M 458 290 L 1089.792969 290 L 1089.792969 875.492188 L 458 875.492188 Z M 458 290 " clip-rule="nonzero"/></clipPath><clipPath id="426b74eeeb"><rect x="0" width="595" y="0" height="158"/></clipPath><clipPath id="449140227a"><rect x="0" width="353" y="0" height="38"/></clipPath></defs><rect x="-150" width="1800" fill="#ffffff" y="-149.999993" height="1799.99992" fill-opacity="1"/><rect x="-150" width="1800" fill="#2e2d2d" y="-149.999993" height="1799.99992" fill-opacity="1"/><g clip-path="url(#edaa4ea8c0)"><g clip-path="url(#f9d8faec9d)"><path fill="url(#d0a15d5ecc)" d="M 410.324219 290.078125 L 410.324219 875.402344 L 1037.097656 875.402344 L 1037.097656 290.078125 Z M 410.324219 290.078125 " fill-rule="nonzero"/></g></g><g clip-path="url(#25660c6981)"><path fill="#ffe5a6" d="M 893.71875 455.816406 L 847.074219 481.949219 L 847.074219 358.222656 L 893.71875 414.804688 Z M 683.277344 319.011719 L 749.960938 379.636719 L 749.960938 370.949219 L 683.277344 290.078125 Z M 683.277344 373.457031 L 749.960938 423.976562 L 749.960938 412.605469 L 683.277344 345.222656 Z M 683.277344 427.914062 L 749.960938 468.335938 L 749.960938 454.28125 L 683.277344 400.363281 Z M 683.277344 482.359375 L 749.960938 512.675781 L 749.960938 495.941406 L 683.277344 455.507812 Z M 683.277344 536.8125 L 726.027344 549.773438 L 748.664062 537.082031 L 683.265625 510.648438 L 683.265625 536.8125 Z M 683.277344 591.257812 L 717.242188 596.40625 L 717.242188 572.65625 L 683.277344 565.789062 Z M 682.601562 645.671875 L 717.242188 631.132812 L 717.242188 620.921875 L 682.601562 620.921875 Z M 458.289062 739.800781 L 517.367188 715.007812 L 517.367188 593.082031 L 458.289062 636.734375 Z M 1037.097656 737.007812 L 970.304688 711.414062 L 969.542969 711.121094 L 783.210938 639.707031 L 783.210938 684.011719 L 969.578125 733.800781 L 970.304688 733.996094 L 1037.097656 751.835938 L 1089.730469 765.898438 L 1089.730469 757.1875 Z M 987.171875 761.136719 L 970.304688 757.070312 L 969.621094 756.910156 L 783.210938 711.949219 L 783.210938 751.019531 L 783.445312 750.976562 L 969.664062 778.367188 L 1037.097656 788.289062 L 1089.730469 796.035156 L 1089.730469 785.875 L 1037.097656 773.183594 Z M 969.707031 802.203125 L 783.210938 783.601562 L 783.210938 817.308594 L 783.445312 817.296875 L 969.746094 821.277344 L 1037.097656 822.714844 L 1089.730469 823.84375 L 1089.730469 814.164062 L 1037.097656 808.917969 Z M 969.789062 840.523438 L 783.789062 844.054688 L 783.210938 844.03125 L 783.210938 875.378906 L 1037.097656 849.644531 L 1089.730469 844.3125 L 1089.730469 838.25 L 1037.097656 839.246094 Z M 969.789062 840.523438 " fill-opacity="1" fill-rule="nonzero"/></g><g transform="matrix(1, 0, 0, 1, 452, 948)"><g clip-path="url(#426b74eeeb)"><g fill="#d7af4d" fill-opacity="1"><g transform="translate(2.551176, 124.037056)"><g><path d="M 53.71875 1.625 C 39.664062 1.625 27.832031 -2.179688 18.21875 -9.796875 C 8.613281 -17.410156 3.8125 -28.332031 3.8125 -42.5625 C 3.8125 -50.90625 5.394531 -58.335938 8.5625 -64.859375 C 11.738281 -71.390625 15.910156 -76.515625 21.078125 -80.234375 C 31.503906 -87.847656 43.195312 -91.65625 56.15625 -91.65625 C 63.6875 -91.65625 71.53125 -90.296875 79.6875 -87.578125 L 78.328125 -78.328125 C 74.066406 -80.140625 70.757812 -81.5 68.40625 -82.40625 C 61.601562 -84.851562 54.753906 -86.078125 47.859375 -86.078125 C 38.347656 -83.898438 31.03125 -79.1875 25.90625 -71.9375 C 20.78125 -64.6875 18.21875 -55.617188 18.21875 -44.734375 C 18.21875 -31.410156 21.707031 -21.144531 28.6875 -13.9375 C 35.664062 -6.726562 44.867188 -3.125 56.296875 -3.125 C 67.722656 -3.125 76.242188 -5.570312 81.859375 -10.46875 L 81.859375 -2.984375 C 74.066406 0.0859375 64.6875 1.625 53.71875 1.625 Z M 53.71875 1.625 "/></g></g></g><g fill="#d7af4d" fill-opacity="1"><g transform="translate(88.493323, 124.037056)"><g><path d="M 1.359375 0 L 41.75 -92.203125 L 43.78125 -92.203125 L 84.171875 0 L 69.359375 0 L 59.15625 -24.484375 L 18.765625 -24.484375 L 8.703125 0 Z M 20.8125 -29.640625 L 56.984375 -29.640625 L 39.03125 -73.703125 Z M 20.8125 -29.640625 "/></g></g></g><g fill="#d7af4d" fill-opacity="1"><g transform="translate(174.02751, 124.037056)"><g><path d="M 25.5625 -42.96875 L 25.5625 0 L 12.234375 0 L 12.234375 -90.015625 L 41.609375 -90.015625 C 50.765625 -90.015625 58.265625 -87.972656 64.109375 -83.890625 C 69.960938 -79.816406 72.890625 -74.445312 72.890625 -67.78125 C 72.890625 -61.125 70.550781 -55.867188 65.875 -52.015625 C 61.207031 -48.160156 54.890625 -45.507812 46.921875 -44.0625 L 83.359375 0 L 67.578125 1.90625 L 36.03125 -42.96875 Z M 25.5625 -47.046875 L 34.265625 -47.046875 C 50.585938 -47.046875 58.75 -53.484375 58.75 -66.359375 C 58.75 -68.535156 58.203125 -70.984375 57.109375 -73.703125 C 55.023438 -79.410156 50.582031 -83.171875 43.78125 -84.984375 C 37.625 -84.984375 31.550781 -84.210938 25.5625 -82.671875 Z M 25.5625 -47.046875 "/></g></g></g><g fill="#d7af4d" fill-opacity="1"><g transform="translate(260.785574, 124.037056)"><g><path d="M 1.359375 0 L 41.75 -92.203125 L 43.78125 -92.203125 L 84.171875 0 L 69.359375 0 L 59.15625 -24.484375 L 18.765625 -24.484375 L 8.703125 0 Z M 20.8125 -29.640625 L 56.984375 -29.640625 L 39.03125 -73.703125 Z M 20.8125 -29.640625 "/></g></g></g><g fill="#d7af4d" fill-opacity="1"><g transform="translate(346.31976, 124.037056)"><g><path d="M 53.71875 1.625 C 39.664062 1.625 27.832031 -2.179688 18.21875 -9.796875 C 8.613281 -17.410156 3.8125 -28.332031 3.8125 -42.5625 C 3.8125 -50.90625 5.394531 -58.335938 8.5625 -64.859375 C 11.738281 -71.390625 15.910156 -76.515625 21.078125 -80.234375 C 31.503906 -87.847656 43.195312 -91.65625 56.15625 -91.65625 C 63.6875 -91.65625 71.53125 -90.296875 79.6875 -87.578125 L 78.328125 -78.328125 C 74.066406 -80.140625 70.757812 -81.5 68.40625 -82.40625 C 61.601562 -84.851562 54.753906 -86.078125 47.859375 -86.078125 C 38.347656 -83.898438 31.03125 -79.1875 25.90625 -71.9375 C 20.78125 -64.6875 18.21875 -55.617188 18.21875 -44.734375 C 18.21875 -31.410156 21.707031 -21.144531 28.6875 -13.9375 C 35.664062 -6.726562 44.867188 -3.125 56.296875 -3.125 C 67.722656 -3.125 76.242188 -5.570312 81.859375 -10.46875 L 81.859375 -2.984375 C 74.066406 0.0859375 64.6875 1.625 53.71875 1.625 Z M 53.71875 1.625 "/></g></g></g><g fill="#d7af4d" fill-opacity="1"><g transform="translate(432.261908, 124.037056)"><g><path d="M 1.359375 0 L 41.75 -92.203125 L 43.78125 -92.203125 L 84.171875 0 L 69.359375 0 L 59.15625 -24.484375 L 18.765625 -24.484375 L 8.703125 0 Z M 20.8125 -29.640625 L 56.984375 -29.640625 L 39.03125 -73.703125 Z M 20.8125 -29.640625 "/></g></g></g><g fill="#d7af4d" fill-opacity="1"><g transform="translate(517.796094, 124.037056)"><g><path d="M 22.03125 -74.390625 C 22.03125 -70.398438 23.59375 -66.703125 26.71875 -63.296875 C 29.84375 -59.898438 33.648438 -56.910156 38.140625 -54.328125 C 42.628906 -51.742188 47.09375 -49.113281 51.53125 -46.4375 C 55.976562 -43.757812 59.765625 -40.472656 62.890625 -36.578125 C 66.015625 -32.679688 67.578125 -28.375 67.578125 -23.65625 C 67.578125 -16.226562 64.832031 -10.15625 59.34375 -5.4375 C 53.863281 -0.726562 46.457031 1.625 37.125 1.625 C 27.789062 1.625 18.546875 -0.140625 9.390625 -3.671875 L 9.390625 -10.0625 C 18.628906 -5.4375 26.488281 -3.125 32.96875 -3.125 C 39.457031 -3.125 44.515625 -4.707031 48.140625 -7.875 C 51.765625 -11.050781 53.578125 -15.453125 53.578125 -21.078125 C 53.578125 -24.878906 52.082031 -28.34375 49.09375 -31.46875 C 46.101562 -34.601562 42.476562 -37.328125 38.21875 -39.640625 C 33.957031 -41.953125 29.691406 -44.332031 25.421875 -46.78125 C 21.160156 -49.226562 17.535156 -52.332031 14.546875 -56.09375 C 11.554688 -59.851562 10.0625 -64.40625 10.0625 -69.75 C 10.0625 -75.101562 12.441406 -80.09375 17.203125 -84.71875 C 21.960938 -89.34375 29.054688 -91.65625 38.484375 -91.65625 C 44.648438 -91.65625 52.445312 -90.25 61.875 -87.4375 L 60.515625 -78.1875 C 48.273438 -83.445312 37.800781 -86.078125 29.09375 -86.078125 C 24.382812 -83.804688 22.03125 -79.910156 22.03125 -74.390625 Z M 22.03125 -74.390625 "/></g></g></g></g></g><g transform="matrix(1, 0, 0, 1, 578, 1125)"><g clip-path="url(#449140227a)"><g fill="#d7af4d" fill-opacity="1"><g transform="translate(3.427215, 29.740507)"><g><path d="M 5.328125 -2.453125 L 14.25 -2.453125 L 14.25 0 L 2.453125 0 L 2.453125 -22.75 L 5.328125 -22.75 Z M 5.328125 -2.453125 "/></g></g></g><g fill="#d7af4d" fill-opacity="1"><g transform="translate(29.222298, 29.740507)"><g><path d="M 16.015625 -22.75 L 16.015625 -6.578125 C 15.992188 -4.421875 15.367188 -2.734375 14.140625 -1.515625 C 12.910156 -0.296875 11.195312 0.3125 9 0.3125 C 6.75 0.3125 5.03125 -0.28125 3.84375 -1.46875 C 2.65625 -2.664062 2.050781 -4.367188 2.03125 -6.578125 L 2.03125 -22.75 L 4.875 -22.75 L 4.875 -6.6875 C 4.875 -5.15625 5.195312 -4.007812 5.84375 -3.25 C 6.5 -2.5 7.550781 -2.125 9 -2.125 C 10.457031 -2.125 11.507812 -2.5 12.15625 -3.25 C 12.8125 -4.007812 13.140625 -5.15625 13.140625 -6.6875 L 13.140625 -22.75 Z M 16.015625 -22.75 "/></g></g></g><g fill="#d7af4d" fill-opacity="1"><g transform="translate(57.783007, 29.740507)"><g><path d="M 8.84375 -14.03125 L 13.125 -22.75 L 16.484375 -22.75 L 10.5625 -11.46875 L 16.609375 0 L 13.21875 0 L 8.84375 -8.875 L 4.453125 0 L 1.0625 0 L 7.140625 -11.46875 L 1.1875 -22.75 L 4.53125 -22.75 Z M 8.84375 -14.03125 "/></g></g></g><g fill="#d7af4d" fill-opacity="1"><g transform="translate(85.999965, 29.740507)"><g><path d="M 16.015625 -22.75 L 16.015625 -6.578125 C 15.992188 -4.421875 15.367188 -2.734375 14.140625 -1.515625 C 12.910156 -0.296875 11.195312 0.3125 9 0.3125 C 6.75 0.3125 5.03125 -0.28125 3.84375 -1.46875 C 2.65625 -2.664062 2.050781 -4.367188 2.03125 -6.578125 L 2.03125 -22.75 L 4.875 -22.75 L 4.875 -6.6875 C 4.875 -5.15625 5.195312 -4.007812 5.84375 -3.25 C 6.5 -2.5 7.550781 -2.125 9 -2.125 C 10.457031 -2.125 11.507812 -2.5 12.15625 -3.25 C 12.8125 -4.007812 13.140625 -5.15625 13.140625 -6.6875 L 13.140625 -22.75 Z M 16.015625 -22.75 "/></g></g></g><g fill="#d7af4d" fill-opacity="1"><g transform="translate(114.560673, 29.740507)"><g><path d="M 9.328125 -9.203125 L 5.328125 -9.203125 L 5.328125 0 L 2.453125 0 L 2.453125 -22.75 L 8.828125 -22.75 C 11.054688 -22.75 12.742188 -22.164062 13.890625 -21 C 15.035156 -19.84375 15.609375 -18.144531 15.609375 -15.90625 C 15.609375 -14.5 15.296875 -13.269531 14.671875 -12.21875 C 14.054688 -11.175781 13.179688 -10.390625 12.046875 -9.859375 L 16.453125 -0.1875 L 16.453125 0 L 13.375 0 Z M 5.328125 -11.65625 L 8.796875 -11.65625 C 9.992188 -11.65625 10.945312 -12.039062 11.65625 -12.8125 C 12.375 -13.582031 12.734375 -14.613281 12.734375 -15.90625 C 12.734375 -18.820312 11.410156 -20.28125 8.765625 -20.28125 L 5.328125 -20.28125 Z M 5.328125 -11.65625 "/></g></g></g><g fill="#d7af4d" fill-opacity="1"><g transform="translate(142.137007, 29.740507)"><g><path d="M 8.375 -11.328125 L 13.03125 -22.75 L 16.265625 -22.75 L 9.796875 -8.484375 L 9.796875 0 L 6.9375 0 L 6.9375 -8.484375 L 0.46875 -22.75 L 3.71875 -22.75 Z M 8.375 -11.328125 "/></g></g></g><g fill="#d7af4d" fill-opacity="1"><g transform="translate(169.510215, 29.740507)"><g/></g></g><g fill="#d7af4d" fill-opacity="1"><g transform="translate(187.430299, 29.740507)"><g><path d="M 13.359375 -10.515625 L 5.3125 -10.515625 L 5.3125 -2.453125 L 14.6875 -2.453125 L 14.6875 0 L 2.453125 0 L 2.453125 -22.75 L 14.53125 -22.75 L 14.53125 -20.28125 L 5.3125 -20.28125 L 5.3125 -12.96875 L 13.359375 -12.96875 Z M 13.359375 -10.515625 "/></g></g></g><g fill="#d7af4d" fill-opacity="1"><g transform="translate(213.912883, 29.740507)"><g><path d="M 12.390625 -5.75 C 12.390625 -6.882812 12.082031 -7.753906 11.46875 -8.359375 C 10.851562 -8.960938 9.742188 -9.550781 8.140625 -10.125 C 6.535156 -10.695312 5.304688 -11.296875 4.453125 -11.921875 C 3.609375 -12.554688 2.972656 -13.273438 2.546875 -14.078125 C 2.128906 -14.890625 1.921875 -15.816406 1.921875 -16.859375 C 1.921875 -18.660156 2.519531 -20.144531 3.71875 -21.3125 C 4.925781 -22.476562 6.503906 -23.0625 8.453125 -23.0625 C 9.785156 -23.0625 10.972656 -22.757812 12.015625 -22.15625 C 13.054688 -21.5625 13.859375 -20.734375 14.421875 -19.671875 C 14.984375 -18.609375 15.265625 -17.441406 15.265625 -16.171875 L 12.390625 -16.171875 C 12.390625 -17.578125 12.050781 -18.664062 11.375 -19.4375 C 10.695312 -20.207031 9.722656 -20.59375 8.453125 -20.59375 C 7.296875 -20.59375 6.398438 -20.269531 5.765625 -19.625 C 5.128906 -18.976562 4.8125 -18.070312 4.8125 -16.90625 C 4.8125 -15.945312 5.15625 -15.144531 5.84375 -14.5 C 6.53125 -13.851562 7.59375 -13.273438 9.03125 -12.765625 C 11.269531 -12.023438 12.867188 -11.113281 13.828125 -10.03125 C 14.796875 -8.945312 15.28125 -7.53125 15.28125 -5.78125 C 15.28125 -3.9375 14.679688 -2.457031 13.484375 -1.34375 C 12.285156 -0.238281 10.65625 0.3125 8.59375 0.3125 C 7.269531 0.3125 6.046875 0.0234375 4.921875 -0.546875 C 3.804688 -1.128906 2.925781 -1.941406 2.28125 -2.984375 C 1.644531 -4.035156 1.328125 -5.238281 1.328125 -6.59375 L 4.203125 -6.59375 C 4.203125 -5.1875 4.59375 -4.09375 5.375 -3.3125 C 6.164062 -2.53125 7.238281 -2.140625 8.59375 -2.140625 C 9.851562 -2.140625 10.800781 -2.460938 11.4375 -3.109375 C 12.070312 -3.753906 12.390625 -4.632812 12.390625 -5.75 Z M 12.390625 -5.75 "/></g></g></g><g fill="#d7af4d" fill-opacity="1"><g transform="translate(241.082966, 29.740507)"><g><path d="M 15.75 -20.28125 L 9.765625 -20.28125 L 9.765625 0 L 6.90625 0 L 6.90625 -20.28125 L 0.9375 -20.28125 L 0.9375 -22.75 L 15.75 -22.75 Z M 15.75 -20.28125 "/></g></g></g><g fill="#d7af4d" fill-opacity="1"><g transform="translate(268.331174, 29.740507)"><g><path d="M 13.0625 -5.9375 L 5.375 -5.9375 L 3.609375 0 L 0.671875 0 L 8 -22.75 L 10.453125 -22.75 L 17.796875 0 L 14.859375 0 Z M 6.125 -8.40625 L 12.328125 -8.40625 L 9.21875 -18.75 Z M 6.125 -8.40625 "/></g></g></g><g fill="#d7af4d" fill-opacity="1"><g transform="translate(297.360633, 29.740507)"><g><path d="M 15.75 -20.28125 L 9.765625 -20.28125 L 9.765625 0 L 6.90625 0 L 6.90625 -20.28125 L 0.9375 -20.28125 L 0.9375 -22.75 L 15.75 -22.75 Z M 15.75 -20.28125 "/></g></g></g><g fill="#d7af4d" fill-opacity="1"><g transform="translate(324.608841, 29.740507)"><g><path d="M 13.359375 -10.515625 L 5.3125 -10.515625 L 5.3125 -2.453125 L 14.6875 -2.453125 L 14.6875 0 L 2.453125 0 L 2.453125 -22.75 L 14.53125 -22.75 L 14.53125 -20.28125 L 5.3125 -20.28125 L 5.3125 -12.96875 L 13.359375 -12.96875 Z M 13.359375 -10.515625 "/></g></g></g></g></g></svg>